<svg xmlns="http://www.w3.org/2000/svg" width="64" height="64" viewBox="0 0 64 64" role="img" aria-label="Bali 2026">
  <defs>
    <linearGradient id="bg" x1="8" y1="4" x2="56" y2="60" gradientUnits="userSpaceOnUse">
      <stop stop-color="#0f766e"/>
      <stop offset="0.55" stop-color="#166534"/>
      <stop offset="1" stop-color="#1d4ed8"/>
    </linearGradient>
    <linearGradient id="sand" x1="17" y1="37" x2="48" y2="53" gradientUnits="userSpaceOnUse">
      <stop stop-color="#fef3c7"/>
      <stop offset="1" stop-color="#bbf7d0"/>
    </linearGradient>
  </defs>
  <rect width="64" height="64" rx="16" fill="url(#bg)"/>
  <circle cx="46" cy="17" r="8" fill="#facc15"/>
  <path d="M17 46c4-10 12-18 24-21 5 7 4 16-3 22-7 6-16 6-21-1Z" fill="url(#sand)"/>
  <path d="M22 44c4-7 9-12 18-15" fill="none" stroke="#0f766e" stroke-width="4" stroke-linecap="round"/>
  <path d="M18 48c8-2 16-1 27 4" fill="none" stroke="#ffffff" stroke-opacity="0.9" stroke-width="4" stroke-linecap="round"/>
  <path d="M18 48c7-12 16-20 28-25" fill="none" stroke="#ffffff" stroke-width="3" stroke-linecap="round" stroke-dasharray="1 7"/>
  <circle cx="18" cy="48" r="4" fill="#ffffff"/>
  <circle cx="31" cy="36" r="4" fill="#ffffff"/>
  <circle cx="46" cy="23" r="4" fill="#ffffff"/>
  <text x="32" y="57" fill="#ffffff" font-family="Arial, sans-serif" font-size="12" font-weight="800" text-anchor="middle">B26</text>
</svg>
